/* XPM */
static char *keepass[] = {
/* columns rows colors chars-per-pixel */
"48 48 244 2",
"   c #000000",
".  c #070807",
"X  c #080807",
"o  c #0A0B0A",
"O  c #0F100F",
"+  c #10120E",
"@  c #121312",
"#  c #171817",
"$  c #181917",
"%  c #1A1C1A",
"&  c #1E201D",
"*  c #20221F",
"=  c #222322",
"-  c #262825",
";  c #292B27",
":  c #2A2B29",
">  c #2E302E",
",  c #2C3C23",
"<  c #333333",
"1  c #363836",
"2  c #373A38",
"3  c #383937",
"4  c #3A3B3A",
"5  c #1E661F",
"6  c #1C691D",
"7  c #1F6920",
"8  c #2F4722",
"9  c #304525",
"0  c #314B23",
"q  c #354C28",
"w  c #374530",
"e  c #384331",
"r  c #3E403E",
"t  c #375524",
"y  c #365B20",
"u  c #216E1D",
"i  c #24721F",
"p  c #206621",
"a  c #246B25",
"s  c #276C28",
"d  c #29672A",
"f  c #2A6C2A",
"g  c #2F6E30",
"h  c #277222",
"j  c #277028",
"k  c #2B7423",
"l  c #2A722A",
"z  c #2D7923",
"x  c #336734",
"c  c #346C33",
"v  c #3A6C3A",
"b  c #32742D",
"n  c #317B25",
"m  c #337B2C",
"M  c #38742E",
"N  c #387D2D",
"B  c #337330",
"V  c #377C30",
"C  c #397532",
"Z  c #3C7239",
"A  c #3B7A33",
"S  c #40413F",
"D  c #48593E",
"F  c #42652E",
"G  c #446C2D",
"H  c #48732E",
"J  c #43713F",
"K  c #427E37",
"L  c #437B3A",
"P  c #4D7734",
"I  c #4F7738",
"U  c #424342",
"Y  c #454844",
"T  c #484A46",
"R  c #4B4D4A",
"E  c #4F504E",
"W  c #525452",
"Q  c #565956",
"!  c #5B5D5B",
"~  c #426D42",
"^  c #447343",
"/  c #477844",
"(  c #4C774C",
")  c #497C41",
"_  c #497849",
"`  c #567F4E",
"'  c #527B52",
"]  c #587A52",
"[  c #5A7D5A",
"{  c #607257",
"}  c gray38",
"|  c #666865",
" . c #6A6C6A",
".. c #6D706C",
"X. c #70736F",
"o. c gray45",
"O. c #787B76",
"+. c #7C7E7C",
"@. c #3A812D",
"#. c #3F882C",
"$. c #3C8231",
"%. c #40872D",
"&. c #438B2D",
"*. c #4A802C",
"=. c #418532",
"-. c #448934",
";. c #4C853D",
":. c #498D32",
">. c #4D9431",
",. c #4E913A",
"<. c #50853C",
"1. c #578F36",
"2. c #578D38",
"3. c #5A8C3E",
"4. c #519734",
"5. c #52943B",
"6. c #549B34",
"7. c #55993B",
"8. c #5A9537",
"9. c #5A933B",
"0. c #5B9F34",
"q. c #5A9D3B",
"w. c #5BA236",
"e. c #5DA23A",
"r. c #629F3F",
"t. c #61A53B",
"y. c #62A83A",
"u. c #4D8240",
"i. c #558142",
"p. c #528942",
"a. c #5B8843",
"s. c #5F825B",
"d. c #5B9842",
"f. c #5EA140",
"g. c #608F44",
"h. c #648F4C",
"j. c #61835D",
"k. c #628953",
"l. c #6A8E59",
"z. c #629645",
"x. c #66944B",
"c. c #649C44",
"v. c #669B49",
"b. c #699A4D",
"n. c #6A9454",
"m. c #6A9851",
"M. c #6F9858",
"N. c #70915D",
"B. c #729A5B",
"V. c #638562",
"C. c #678568",
"Z. c #698965",
"A. c #6D8C6B",
"S. c #6F9069",
"D. c #718F6E",
"F. c #738D71",
"G. c #7E807C",
"H. c #709462",
"J. c #72906E",
"K. c #769A62",
"L. c #7D9E6C",
"P. c #749171",
"I. c #7A9474",
"U. c #7E977C",
"Y. c #7D9976",
"T. c #7F997A",
"R. c #63A341",
"E. c #66A941",
"W. c #68A545",
"Q. c #69AC43",
"!. c #80827F",
"~. c #819F6F",
"^. c #809D72",
"/. c #81997C",
"(. c #80A16D",
"). c #86A077",
"_. c #8AA37D",
"`. c #828381",
"'. c #858885",
"]. c #888A87",
"[. c #8A8C8A",
"{. c #849B82",
"}. c #8F908E",
"|. c #8B9C89",
" X c #939492",
".X c #969896",
"XX c #989996",
"oX c #9C9C9B",
"OX c #8CA483",
"+X c #8CA18D",
"@X c #91A48D",
"#X c #91A883",
"$X c #95AB8A",
"%X c #98AC8E",
"&X c #92A490",
"*X c #9DA09D",
"=X c #9BAD93",
"-X c #9BAA9A",
";X c #A1B296",
":X c #A5B59C",
">X c #A3A3A2",
",X c #A2ADA1",
"<X c #A8A9A7",
"1X c #ACADAB",
"2X c #A4B2A4",
"3X c #A8B6A3",
"4X c #A9B5A9",
"5X c #ADBBA5",
"6X c #ADB9AD",
"7X c #AFBAB0",
"8X c #B1B7AE",
"9X c #B2BFAB",
"0X c #B3B4B2",
"qX c #B3BAB3",
"wX c #B8B9B7",
"eX c #BCBDBC",
"rX c #B6C0AF",
"tX c #B7C2B2",
"yX c #BAC4B3",
"uX c #BBC2BA",
"iX c #C0C8BD",
"pX c #C2C4C2",
"aX c #C5CCC3",
"sX c #C8CDC7",
"dX c #CBCCCB",
"fX c #C9D0C6",
"gX c #CCD2CB",
"hX c #D0D3CF",
"jX c #D2D4D2",
"kX c #D5D9D4",
"lX c #D9DCD7",
"zX c #DBDCDA",
"xX c #DDE0DC",
"cX c #E0E2DF",
"vX c #E3E4E2",
"bX c #E6E8E6",
"nX c #E8EAE6",
"mX c #EAEBEA",
"MX c #EEF0EE",
"NX c #F3F4F3",
"BX c #F7F8F6",
"VX c #F8F8F7",
"CX c #FAFAFA",
"ZX c None",
/* pixels */
"ZXZXZXZXZXZXZXZXZXZXZXZXZXZXZXZXZXZXZXZXZXZXZXZXZXZX          . X X             ZXZXZXZXZXZXZXZX",
"ZXZXZXZXZXZXZXZXZXZXZXZXZXZXZXZXZXZXZXZXZXZXZXZX        o - 4 W ! E 4 - +         ZXZXZXZXZXZXZX",
"ZXZXZXZXZXZXZXZXZXZXZXZXZXZXZXZXZXZXZXZXZXZXZX      o U !.1XdXcXnXcXdX0X!.S @         ZXZXZXZXZX",
"ZXZXZXZXZXZXZXZXZXZXZXZXZXZXZXZXZXZXZXZXZX      o 1 `.dXmXNXNXmXmXMXNXVXMXdX[.1 o       ZXZXZXZX",
"ZXZXZXZX            ZXZXZXZXZXZXZXZXZXZXZX    o T 0XMXNXzXqX%X).~._.:XiXbXCXMX8XR @       ZXZXZX",
"                        ZXZXZXZXZXZXZXZX    o 4 0XMXmX9X^.m.c.W.W.W.v.M.$XgXNXMXwXE o     ZXZXZX",
"  o : < 1 1 3 3 : o       ZXZXZXZXZXZX    . 4 <XmXzX%Xb.W.y.Q.y.y.y.y.t.c.B.9XmXNX8X4 X     ZXZX",
"X 4 1XjXzXzXzXlXwXW @       ZXZXZXZXZX    = ].vXxX#Xz.w.y.y.y.y.y.t.r.0.w.r.M.tXNXmX[.*       ZX",
"X U pXCXCXCXCXCXCXwXR # X .   ZXZXZX    . R aXNX5Xm.E.E.Q.Q.Q.y.t.g.N.N.a.9.r.~.kXCXsXR o     ZX",
"X U pXVXNXMXNXNXCXNXpX! $       ZXZX    @ [.bXkX~.W.Q.Q.Q.Q.Q.W.B.yXcXvX8X{ I x.;XnXnX'.%       ",
"X S pXmXqX{.U.+XgXNXNXpXW O           . - 0XnX5Xv.t.y.y.y.y.y.b.:XMXCXCXmXXXe H K.gXNX0X3       ",
"X S eXvX{.M k b Z.dXBXNXwXT O         X U hXcXOXr.0.t.t.y.y.t.B.sXCXCXCXCXpXY t h.9XNXhXQ O     ",
". 4 eXvX|.Z $.$.K J.gXNXNXwXQ % o     @ ! zXjXL.R.E.E.E.Q.Q.W.N.iXVXCXCXVXiXT q a.%XmXvX+.#     ",
"X 4 eXmX-X) $.$.$.K J.sXNXNXpXW o     @ o.xXgXB.d.f.E.E.Q.E.r.3.|.bXCXCXbX[.; 0 3.$XnXmXG.@     ",
". 2 eXMXjXI.C n m n A S.hXVXNX8XU o   @ O.vXaXn.6.6.6.w.w.e.0.P D oXzXcXoX1 + y 8._.nXmX'.@     ",
"  % !.vXBXjXS.C n n n K I.jXBXMX0XW # @  .xXgXB.7.e.e.e.t.t.y.0.G 3 R T : % 0 3.r.$XmXbXG.@     ",
"    =  XmXBXhXF.Z $.$.$.;.Y.hXBXNXeXW : +.bXzX^.d.d.e.f.R.E.W.W.R.P q , 9 F 3.W.b.:XMXcX..@     ",
"    . 2 <XmXNXdXA.C $.$.V L U.lXCXNXwX[.dXNXbXOX5.q.q.q.e.e.e.e.t.t.q.1.8.t.y.y.B.iXNXaXR o     ",
"      o 2 oXmXNXgXZ.b k z z A T.lXVXBXMXCXNXsXS.:.>.>.>.>.w.6.w.w.e.e.e.y.y.y.t._.xXMX>X;       ",
"ZX      X 2 1XMXBXfXZ.C m m @.) {.lXCXCXCXkX^.p.5.5.7.7.e.e.f.f.R.y.E.E.E.E.W.B.yXNXxX..O       ",
"ZXZX      o E pXBXBXaXC.C $.$.$.) {.cXCXnX@Xp.,.,.7.7.7.d.f.f.f.R.R.E.E.Q.Q.c.%XnXNXwX4 X       ",
"ZXZXZX      @ Q eXNXNXfXZ.C n m m L /.aX&X;.#.&.&.:.:.&.&.>.6.6.6.6.w.e.q.z._.lXVXlX| +         ",
"ZXZXZXZX      O E sXBXBXuXs.l z k z Z ] L @.#.#.&.&.=.` ;.:.>.>.6.6.6.9.n.=XzXVXcX[.*           ",
"ZXZXZXZXZX      O | jXBXNXuXs.C N N @.A K $.-.:.:.;.L.uX:XY.s.p.;.a.l._.uXmXCXbX X> X           ",
"ZXZXZXZXZXZX      % o.jXNXNXuXV.A m m $.@.%.$.=.;.Y.hXBXBXbXkXaXiXsXlXmXVXNXgX+.; .             ",
"ZXZXZXZXZXZXZX    . & '.mXCXNX6XJ h k z n n n N S.gXBXmXxXmXCXCXCXCXCXMXgX XR @               ZX",
"ZXZXZXZXZXZXZX    . < >XMXCXmX-XZ h k z z n m ` yXNXBXpXX.O.oX1X8X1X*XO.Y % .               ZXZX",
"ZXZXZXZXZXZX    . 4 >XmXCXvX,X( l b m m V @.A j.fXBXCXxX`.3 % % % $ @ o                   ZXZXZX",
"ZXZXZXZXZX    . > >XMXCXbX-X^ l l l l m m m m A P.hXBXCXzX`.%                           ZXZXZXZX",
"ZXZXZXZX    . >  XmXCXNX2X~ 7 6 6 6 6 u i i i k V I.jXBXCXkX| @                       ZXZXZXZXZX",
"ZXZXZX    X 4 >XmXCXmX6X( s a a d v J ^ ^ v l m m Z P.gXNXVXhX| = @                 ZXZXZXZXZXZX",
"ZXZX    X < >XmXCXmX2X( g l l c [ qXgXkXlX2X' V m $.Z F.gXBXBXdX .=           ZXZXZXZXZXZXZXZXZX",
"ZX    . >  XbXCXNX7X( a a 7 s s D.xXCXCXCXmX,X^ l l z C S.hXBXBXdXW O       ZXZXZXZXZXZXZXZXZXZX",
"    . 1 *XmXCXmXqX( 7 7 6 7 7 a A.lXsXoXdXBXmX2X/ h k k C Z.fXBXNXuXQ # O @ o ZXZXZXZXZXZXZXZXZX",
"  X < oXmXCXMX7X[ g s j l l l g F.kX<Xr } dXNXmX-X/ B m V C S.gXBXNXeXQ = o     ZXZXZXZXZXZXZXZX",
"  & [.bXCXNXuX[ g l l l s s d x F.kX1X< %  .jXBXvX&X^ m m $.Z P.dXVXMXwXT o     ZXZXZXZXZXZXZXZX",
"X > 0XVXMXeX' 7 7 7 7 7 [ |.-X6XdXmX0X: . @  .dXNXcX&XZ j h h b V.sXNXMX<X3 .     ZXZXZXZXZXZXZX",
". < 0XMXuX[ a 7 7 7 d C.gXNXBXBXCXBXqX>     %  .kXBXvX|.Z l l n b A.gXBXbXG.&       ZXZXZXZXZXZX",
". < 0XvX+Xv l l g g C.sXNXNXvXzXkXjX*X:       % G.cXBXxXU.Z m V V Z {.vXmX X=         ZXZXZXZXZX",
". > 0XvX|.g s s g C.sXNXmX1XQ 2 1 < - o         = `.xXNXlX{.Z j l b S.xXnX}.&         ZXZXZXZXZX",
". < 0XvX+X~ v v C.aXBXNX7Xr o .                 . = !.cXVXlXF.c d c F.xXnX].&         ZXZXZXZXZX",
". < 0XMXkXuXuXuXjXNXBXdXW o                         =  XmXCXlX4X-X,XaXmXmX].&         ZXZXZXZXZX",
". > 0XMXNXBXNXNXNXMXdX| #                             :  XvXCXBXCXCXCXCXnX'.%         ZXZXZXZXZX",
"  %  . X.X.X.X.X.X[.Q % X                             . : `.pXdXdXdXhXhXeX .@         ZXZXZXZXZX",
"    O @ @ @ @ @ @ o .               ZXZXZXZXZXZXZX        # < 2 4 4 4 4 1 %           ZXZXZXZXZX",
"                                  ZXZXZXZXZXZXZXZXZX                                  ZXZXZXZXZX",
"                                ZXZXZXZXZXZXZXZXZXZXZX                                ZXZXZXZXZX",
"ZX                            ZXZXZXZXZXZXZXZXZXZXZXZXZXZX                            ZXZXZXZXZX"
};
